<?xml version="1.0" encoding="UTF-8" standalone="no"?>
<!-- Created with Inkscape (http://www.inkscape.org/) -->

<svg
   xmlns:dc="http://purl.org/dc/elements/1.1/"
   xmlns:cc="http://creativecommons.org/ns#"
   xmlns:rdf="http://www.w3.org/1999/02/22-rdf-syntax-ns#"
   xmlns:svg="http://www.w3.org/2000/svg"
   xmlns="http://www.w3.org/2000/svg"
   xmlns:sodipodi="http://sodipodi.sourceforge.net/DTD/sodipodi-0.dtd"
   xmlns:inkscape="http://www.inkscape.org/namespaces/inkscape"
   width="156.10324"
   height="182.28651"
   id="svg1968"
   sodipodi:version="0.32"
   inkscape:version="0.92.3 (2405546, 2018-03-11)"
   version="1.0"
   sodipodi:docname="logo2.svg"
   inkscape:export-filename="/home/random/Development/imagej/project/howto/viewer/src/assets/logo2.png"
   inkscape:export-xdpi="92"
   inkscape:export-ydpi="92">
  <defs
     id="defs1970" />
  <sodipodi:namedview
     id="base"
     pagecolor="#ffffff"
     bordercolor="#666666"
     borderopacity="1.0"
     inkscape:pageopacity="0.0"
     inkscape:pageshadow="2"
     inkscape:zoom="2.8"
     inkscape:cx="123.47096"
     inkscape:cy="70.686328"
     inkscape:document-units="px"
     inkscape:current-layer="layer1"
     width="68.51mm"
     height="129.89mm"
     units="mm"
     inkscape:window-width="1920"
     inkscape:window-height="1025"
     inkscape:window-x="0"
     inkscape:window-y="31"
     showgrid="false"
     fit-margin-top="0"
     fit-margin-left="0"
     fit-margin-right="0"
     fit-margin-bottom="0"
     inkscape:window-maximized="1"
     inkscape:lockguides="true" />
  <metadata
     id="metadata1973">
    <rdf:RDF>
      <cc:Work
         rdf:about="">
        <dc:format>image/svg+xml</dc:format>
        <dc:type
           rdf:resource="http://purl.org/dc/dcmitype/StillImage" />
        <dc:title />
      </cc:Work>
    </rdf:RDF>
  </metadata>
  <g
     inkscape:label="Ebene 1"
     inkscape:groupmode="layer"
     id="layer1"
     transform="translate(3769.5926,566.3615)">
    <path
       style="opacity:1;fill:#000000;fill-opacity:0.14396889;stroke:none;stroke-width:3.02362227;stroke-linecap:round;stroke-linejoin:round;stroke-miterlimit:4;stroke-dasharray:none;stroke-dashoffset:0;stroke-opacity:1"
       d="m -3494.7946,-402.70264 c -1.2523,-1.91144 -9.4961,-11.13955 -18.3197,-20.5069 -26.8938,-28.5512 -38.7617,-46.0058 -42.4315,-62.40543 -2.1881,-9.77859 -1.1751,-15.55063 4.4504,-25.35811 8.4941,-14.80846 24.8612,-19.47203 40.5083,-11.54228 7.5242,3.81317 17.8392,14.03639 17.8392,17.68049 0,1.20132 0.6565,2.1842 1.4588,2.1842 0.8023,0 1.4586,-0.98288 1.4586,-2.1842 0,-3.66955 10.3372,-13.87848 17.969,-17.74621 8.4743,-4.29463 20.0492,-4.96393 26.5955,-1.53783 2.3678,1.23925 6.3652,4.44289 8.8829,7.11919 9.3122,9.89859 11.8615,19.64077 8.5083,32.51547 -4.2281,16.23487 -15.1614,32.15879 -39.9689,58.21442 -8.5154,8.94371 -17.5506,18.68708 -20.0783,21.65192 l -4.5956,5.39063 z"
       id="path18879"
       inkscape:connector-curvature="0"
       inkscape:export-xdpi="92.246643"
       inkscape:export-ydpi="92.246643" />
    <g
       id="g2181"
       transform="matrix(3.1511927,0,0,3.1511927,-3812.287,-762.42831)"
       style="fill:#65a4e3;fill-opacity:1;stroke:none;stroke-width:0.1586701;stroke-miterlimit:4;stroke-dasharray:none;stroke-opacity:1"
       inkscape:export-xdpi="92.246643"
       inkscape:export-ydpi="92.246643">
      <g
         style="fill:#65a4e3;fill-opacity:1;stroke:none;stroke-width:0.1586701;stroke-miterlimit:4;stroke-dasharray:none;stroke-opacity:1"
         id="g2027"
         transform="translate(-0.00138426,-2.0700713e-6)">
        <path
           style="display:inline;fill:#65a4e3;fill-opacity:1;stroke:none;stroke-width:0.1586701;stroke-miterlimit:4;stroke-dasharray:none;stroke-opacity:1"
           d="m 100.94401,99.110816 h -1.752225 v 5.191314 h 1.752225 z"
           id="path1895"
           inkscape:connector-curvature="0" />
        <path
           style="display:inline;fill:#65a4e3;fill-opacity:1;stroke:none;stroke-width:0.1586701;stroke-miterlimit:4;stroke-dasharray:none;stroke-opacity:1"
           d="m 104.3828,99.110816 h -1.76874 v 6.828954 h -3.422275 v 1.7195 h 5.191015 z"
           id="path1893"
           inkscape:connector-curvature="0" />
      </g>
      <g
         transform="translate(0.26458545)"
         style="fill:#65a4e3;fill-opacity:1;stroke:none;stroke-width:0.1586701;stroke-miterlimit:4;stroke-dasharray:none;stroke-opacity:1"
         id="g2035">
        <path
           inkscape:connector-curvature="0"
           style="display:inline;fill:#65a4e3;fill-opacity:1;stroke:none;stroke-width:0.1586701;stroke-miterlimit:4;stroke-dasharray:none;stroke-opacity:1"
           d="m 97.505095,97.374942 10.300085,0.06551 V 95.639117 H 95.720215 v 12.020153 h 1.78488 z"
           id="path1897" />
        <path
           inkscape:connector-curvature="0"
           style="display:inline;fill:#65a4e3;fill-opacity:1;stroke:none;stroke-width:0.1586701;stroke-miterlimit:4;stroke-dasharray:none;stroke-opacity:1"
           d="m 106.06925,104.30213 h 1.73593 v -5.191314 h -1.73593 z"
           id="doodle_18-4" />
      </g>
    </g>
    <g
       transform="translate(28.53991,36.373507)"
       id="layer1-2"
       inkscape:label="Ebene 1">
      <g
         transform="translate(-3826.724,-785.8793)"
         id="Ebene_x0020_1">
        <metadata
           id="CorelCorpID_0Corel-Layer" />
        <g
           id="_198302696"
           transform="matrix(0.25090772,0,0,0.25090772,277.40566,200.01201)"
           style="stroke-width:3.98552895">
          <path
             style="fill:#4e7896;stroke-width:3.98552895"
             id="_227268128"
             d="m 82.6262,243.321 c 0,0 -11.9391,7.2672 8.30525,9.34351 24.3967,3.11437 37.3741,2.59576 64.3663,-2.59534 0,0 7.2672,4.67165 17.1297,8.30546 -60.7327,25.9542 -137.557,-1.5577 -89.8013,-15.0536 z m -7.78643,-33.7402 c 0,0 -12.9769,9.86233 7.2672,11.9386 26.4735,2.59576 47.2368,3.11437 83.0534,-4.15263 0,0 4.67186,5.19089 12.4579,7.78643 -73.1906,21.8016 -155.206,2.07631 -102.778,-15.5725 z m 143.267,59.1754 c 0,0 8.82449,7.26741 -9.86254,12.9769 -34.7787,10.3818 -145.863,13.4961 -177.008,0 -10.9006,-4.67144 9.86275,-11.4198 16.6105,-12.4579 6.74817,-1.55708 10.3816,-1.55708 10.3816,-1.55708 -11.9384,-8.30546 -79.4195,17.1295 -34.2595,24.3967 124.061,20.2443 226.321,-8.82428 194.137,-23.3587 z M 88.33577,174.283 c 0,0 -56.5799,13.4961 -20.2439,18.1678 15.5725,2.0761 46.1983,1.5575 74.7481,-0.51903 23.3585,-2.07631 46.7176,-6.22894 46.7176,-6.22894 0,0 -8.30546,3.63339 -14.0156,7.26741 -57.6179,15.053 -168.183,8.30504 -136.519,-7.26741 26.9923,-12.9773 49.3125,-11.4198 49.3125,-11.4198 z m 101.222,56.5799 c 58.1372,-30.1069 31.1451,-59.1754 12.4579,-55.5416 -4.67186,1.03805 -6.74817,2.07631 -6.74817,2.07631 0,0 1.55729,-3.11457 5.19068,-4.15263 36.8552,-12.9773 65.9238,38.9309 -11.9384,59.1752 0,0 0.51861,-0.51903 1.03805,-1.55729 z m -95.5117,82.0153 c 56.0613,3.63381 141.71,-2.07631 143.786,-28.5494 0,0 -4.15242,10.3818 -46.1981,18.1676 -47.7558,8.8247 -106.931,7.78643 -141.71,2.07631 0,0 7.26699,6.22915 44.122,8.30546 z"
             inkscape:connector-curvature="0" />
          <path
             style="fill:#f58219;stroke-width:3.98552895"
             id="_230367536"
             d="m 154.26,2.98539 c 0,0 32.1832,32.7022 -30.6261,82.0153 -50.3512,39.9692 -11.4198,62.8088 0,88.7629 -29.5878,-26.4728 -50.8702,-49.8319 -36.336,-71.6335 21.2828,-32.1832 79.939,-47.7554 66.9621,-99.1446 z m -16.6105,148.977 c 15.053,17.1299 -4.15283,32.7026 -4.15283,32.7026 0,0 38.4121,-19.7253 20.7633,-44.1224 -16.0919,-23.3585 -28.5498,-34.7783 38.9311,-73.7098 0,0 -106.412,26.4735 -55.5416,85.1297 z"
             inkscape:connector-curvature="0"
             sodipodi:nodetypes="cccccccccccc" />
        </g>
      </g>
    </g>
    <path
       inkscape:connector-curvature="0"
       id="path4772"
       d="m -3874.1263,-404.17515 c -1.7387,-2.6886 -5.7219,-7.22381 -17.9549,-20.44331 -22.7844,-24.6217 -31.5337,-35.91447 -38.0466,-49.10714 -4.1656,-8.43795 -5.9294,-14.38777 -6.3097,-21.28472 -0.2528,-4.58472 0.3781,-7.88279 2.4112,-12.60461 4.4393,-10.31003 10.8483,-16.85821 19.2023,-19.61922 9.6902,-3.20266 20.5279,-1.02484 29.8803,6.00444 5.9504,4.47235 11.9649,11.3741 11.9649,13.73001 0,1.10496 0.9036,2.5241 1.6072,2.5241 0.7035,0 1.6071,-1.41914 1.6071,-2.5241 0,-0.91787 2.374,-4.99228 3.2098,-5.50881 0.6613,-0.40876 1.1405,0.32706 1.3346,2.04981 0.18,1.59679 -0.3968,3.26342 -1.6071,4.64381 -0.9164,1.04519 -0.069,0.70222 1.8559,-0.75092 3.6718,-2.77223 4.9197,-5.97735 3.4274,-8.80265 l -0.7546,-1.42857 1.8518,-1.71869 c 4.1073,-3.81195 9.8522,-7.02305 15.1572,-8.47208 3.5895,-0.98046 11.5924,-1.36375 14.8976,-0.71349 3.0293,0.59598 6.0995,2.04998 8.6631,4.10271 11.1695,8.94361 16.2336,19.45112 14.8518,30.81563 -1.3402,11.02289 -6.764,22.82883 -16.5334,35.98836 -6.4131,8.63848 -12.7048,15.88962 -26.3382,30.3547 -9.8639,10.46557 -16.0015,17.14323 -19.696,21.42888 -1.6084,1.8659 -3.0215,3.39115 -3.14,3.38943 -0.1186,-0.002 -0.8123,-0.92583 -1.5417,-2.05357 z m -9.9239,-37.58616 v -16.07143 h 16.25 16.25 v -2.85715 -2.85714 h -19.2857 -19.2857 v 18.92857 18.92857 h 3.0357 3.0357 z m 20.7143,2.5 v -13.57143 h -2.8572 -2.8571 v 10.89285 10.89286 h -5.3572 -5.3571 v 2.67857 2.67857 h 8.2143 8.2143 z m -10.8929,-5.17858 v -8.21428 l -2.7678,-0.10431 -2.7679,-0.10431 v 8.4229 8.42291 l 2.7679,-0.10431 2.7678,-0.10431 z m 22.5,0 v -8.21428 l -2.7678,-0.10431 -2.7679,-0.10431 v 8.4229 8.42291 l 2.7679,-0.10431 2.7678,-0.10431 z m -7.1428,-29.12103 c 8.3101,-0.78359 14.1188,-2.43377 16.3393,-4.64173 1.683,-1.67361 1.907,-3.02847 0.2734,-1.65387 -3.2079,2.69921 -13.8656,4.73793 -26.7913,5.12489 -6.2891,0.18827 -14.6278,-0.19611 -18.1766,-0.83788 -0.7894,-0.14275 -1.1332,-0.0911 -0.9854,0.14809 0.3166,0.51227 4.5004,1.48502 7.912,1.83958 4.1936,0.43585 16.8967,0.44824 21.4286,0.0209 z m -6.2321,-3.57072 c 9.0052,-0.69425 17.3742,-2.61204 19.6106,-4.49387 1.2417,-1.04484 1.3222,-1.42543 0.4947,-2.33983 -0.8066,-0.89131 -1.1274,-0.81958 -0.931,0.20818 0.3115,1.6292 -2.5113,2.63961 -10.2637,3.67383 -5.7187,0.76292 -25.3342,0.8833 -30.0825,0.18462 -3.7762,-0.55565 -7.1299,-1.53572 -7.3323,-2.14272 -0.1958,-0.58742 2.5942,-1.80662 5.2753,-2.30521 2.4286,-0.45165 2.4917,-0.9861 0.1164,-0.9861 -4.5276,0 -10.7894,2.93494 -10.4145,4.88142 0.198,1.02808 1.9001,1.61144 6.774,2.32161 8.7716,1.27811 18.4413,1.63885 26.753,0.99807 z m 1.2321,-7.97844 c 2.7142,-0.59542 6.2511,-1.71903 6.2462,-1.98431 0,-0.11145 -0.9882,-0.66084 -2.1915,-1.22087 -2.1834,-1.01616 -2.1937,-1.01726 -5.0856,-0.54096 -5.1255,0.84417 -13.9477,0.52079 -15.4336,-0.56573 -0.5764,-0.42147 -0.5916,-0.54846 -0.132,-1.10223 0.4767,-0.57442 0.4463,-0.60454 -0.3706,-0.36636 -1.1246,0.32791 -2.5059,1.29948 -3.0053,2.11394 -0.8837,1.44104 3.0015,3.47385 8.0081,4.19002 2.5605,0.36627 9.2407,0.074 11.9643,-0.5235 z m 1.0714,-8.8143 c 2.1607,-0.37197 4.5449,-0.85234 5.2981,-1.06748 l 1.3696,-0.39117 -1.7022,-1.07951 -1.7022,-1.0795 -3.7745,0.6503 c -6.5158,1.12257 -18.6599,0.75733 -19.4902,-0.58618 -0.1156,-0.18703 -0.036,-0.66481 0.176,-1.06173 0.5228,-0.97687 -0.1147,-0.94541 -1.9603,0.0967 -1.9416,1.09633 -2.137,2.44134 -0.4993,3.43725 3.5292,2.14625 13.335,2.62203 22.285,1.08128 z m 13.6958,-1.14398 c 2.9389,-1.20333 5.0018,-2.65271 6.5982,-4.63587 2.0642,-2.56436 1.5993,-6.56571 -0.9576,-8.24102 -2.2492,-1.47372 -6.1823,-1.59153 -7.8032,-0.23373 l -0.8189,0.68603 1.6711,-0.21497 c 2.2181,-0.28533 3.2311,0.011 4.5513,1.3311 0.8989,0.89893 1.099,1.38922 1.099,2.69292 0,2.97295 -2.3277,5.9027 -6.6582,8.38036 -3.6444,2.08513 -2.4867,2.20257 2.3183,0.23518 z m -18.1086,-6.70355 c 6.0881,-0.60534 9.877,-1.41692 12.0547,-2.58215 l 2.0009,-1.07061 -1.7857,0.21413 c -0.9821,0.11778 -3.7946,0.48502 -6.25,0.81609 -5.6187,0.75761 -22.8272,0.92088 -24.375,0.23126 -0.5401,-0.24067 -0.9821,-0.61112 -0.9821,-0.82322 0,-0.46267 3.054,-1.83273 5.5357,-2.48343 2.7629,-0.72442 2.8557,-1.18877 0.1786,-0.89324 -4.8049,0.53042 -11.1848,2.69385 -11.6696,3.95714 -0.4449,1.1593 1.5597,2.00481 6.147,2.5927 3.5284,0.45219 14.7692,0.47645 19.1455,0.0413 z"
       style="opacity:1;fill:#65a4e3;fill-opacity:1;stroke:none;stroke-width:0.5;stroke-linecap:round;stroke-linejoin:round;stroke-miterlimit:4;stroke-dasharray:none;stroke-dashoffset:0;stroke-opacity:1" />
    <g
       style="fill:none;stroke:#65a4e3;stroke-opacity:1"
       transform="translate(-351.51748,32.441723)"
       id="g4782"
       inkscape:label="Ebene 1">
      <g
         style="fill:none;stroke:#65a4e3;stroke-opacity:1"
         transform="translate(-3826.724,-785.8793)"
         id="g4780">
        <metadata
           id="metadata4774" />
        <g
           id="g4778"
           transform="matrix(0.25090772,0,0,0.25090772,277.40566,200.01201)"
           style="fill:none;stroke:#65a4e3;stroke-width:3.98552895;stroke-opacity:1">
          <path
             style="fill:none;stroke:#65a4e3;stroke-width:3.98552895;stroke-opacity:1"
             id="path4776"
             d="m 154.26,10.956448 c 0,0 32.1832,32.7022 -30.6261,82.0153 -50.3512,39.969202 -11.4198,62.808802 0,88.762902 -29.5878,-26.4728 -50.8702,-49.8319 -36.336,-71.6335 21.2828,-32.183202 79.939,-47.755402 66.9621,-99.144602 z M 137.6495,159.93345 c 15.053,17.1299 -4.15283,32.7026 -4.15283,32.7026 0,0 38.4121,-19.7253 20.7633,-44.1224 -16.0919,-23.3585 -28.5498,-34.7783 38.9311,-73.709802 0,0 -106.412,26.473502 -55.5416,85.129702 z"
             inkscape:connector-curvature="0"
             sodipodi:nodetypes="cccccccccccc" />
        </g>
      </g>
    </g>
    <g
       inkscape:export-ydpi="92.246643"
       inkscape:export-xdpi="92.246643"
       style="fill:#565656;fill-opacity:1;stroke:none;stroke-width:0.1586701;stroke-miterlimit:4;stroke-dasharray:none;stroke-opacity:1"
       transform="matrix(3.1511927,0,0,3.1511927,-4012.287,-762.42831)"
       id="g4796">
      <g
         transform="translate(-0.00138426,-2.0700713e-6)"
         id="g4788"
         style="fill:#565656;fill-opacity:1;stroke:none;stroke-width:0.1586701;stroke-miterlimit:4;stroke-dasharray:none;stroke-opacity:1">
        <path
           inkscape:connector-curvature="0"
           id="path4784"
           d="m 100.94401,99.110816 h -1.752225 v 5.191314 h 1.752225 z"
           style="display:inline;fill:#565656;fill-opacity:1;stroke:none;stroke-width:0.1586701;stroke-miterlimit:4;stroke-dasharray:none;stroke-opacity:1" />
        <path
           inkscape:connector-curvature="0"
           id="path4786"
           d="m 104.3828,99.110816 h -1.76874 v 6.828954 h -3.422275 v 1.7195 h 5.191015 z"
           style="display:inline;fill:#565656;fill-opacity:1;stroke:none;stroke-width:0.1586701;stroke-miterlimit:4;stroke-dasharray:none;stroke-opacity:1" />
      </g>
      <g
         id="g4794"
         style="fill:#565656;fill-opacity:1;stroke:none;stroke-width:0.1586701;stroke-miterlimit:4;stroke-dasharray:none;stroke-opacity:1"
         transform="translate(0.26458545)">
        <path
           id="path4790"
           d="m 97.505095,97.374942 10.300085,0.06551 V 95.639117 H 95.720215 v 12.020153 h 1.78488 z"
           style="display:inline;fill:#565656;fill-opacity:1;stroke:none;stroke-width:0.1586701;stroke-miterlimit:4;stroke-dasharray:none;stroke-opacity:1"
           inkscape:connector-curvature="0" />
        <path
           id="path4792"
           d="m 106.06925,104.30213 h 1.73593 v -5.191314 h -1.73593 z"
           style="display:inline;fill:#565656;fill-opacity:1;stroke:none;stroke-width:0.1586701;stroke-miterlimit:4;stroke-dasharray:none;stroke-opacity:1"
           inkscape:connector-curvature="0" />
      </g>
    </g>
    <g
       inkscape:label="Ebene 1"
       id="g4808"
       transform="translate(-171.46009,36.373507)"
       style="fill:#565656;fill-opacity:1">
      <g
         id="g4806"
         transform="translate(-3826.724,-785.8793)"
         style="fill:#565656;fill-opacity:1">
        <metadata
           id="metadata4798" />
        <g
           style="stroke-width:3.98552895;fill:#565656;fill-opacity:1"
           transform="matrix(0.25090772,0,0,0.25090772,277.40566,200.01201)"
           id="g4804">
          <path
             inkscape:connector-curvature="0"
             d="m 82.6262,243.321 c 0,0 -11.9391,7.2672 8.30525,9.34351 24.3967,3.11437 37.3741,2.59576 64.3663,-2.59534 0,0 7.2672,4.67165 17.1297,8.30546 -60.7327,25.9542 -137.557,-1.5577 -89.8013,-15.0536 z m -7.78643,-33.7402 c 0,0 -12.9769,9.86233 7.2672,11.9386 26.4735,2.59576 47.2368,3.11437 83.0534,-4.15263 0,0 4.67186,5.19089 12.4579,7.78643 -73.1906,21.8016 -155.206,2.07631 -102.778,-15.5725 z m 143.267,59.1754 c 0,0 8.82449,7.26741 -9.86254,12.9769 -34.7787,10.3818 -145.863,13.4961 -177.008,0 -10.9006,-4.67144 9.86275,-11.4198 16.6105,-12.4579 6.74817,-1.55708 10.3816,-1.55708 10.3816,-1.55708 -11.9384,-8.30546 -79.4195,17.1295 -34.2595,24.3967 124.061,20.2443 226.321,-8.82428 194.137,-23.3587 z M 88.33577,174.283 c 0,0 -56.5799,13.4961 -20.2439,18.1678 15.5725,2.0761 46.1983,1.5575 74.7481,-0.51903 23.3585,-2.07631 46.7176,-6.22894 46.7176,-6.22894 0,0 -8.30546,3.63339 -14.0156,7.26741 -57.6179,15.053 -168.183,8.30504 -136.519,-7.26741 26.9923,-12.9773 49.3125,-11.4198 49.3125,-11.4198 z m 101.222,56.5799 c 58.1372,-30.1069 31.1451,-59.1754 12.4579,-55.5416 -4.67186,1.03805 -6.74817,2.07631 -6.74817,2.07631 0,0 1.55729,-3.11457 5.19068,-4.15263 36.8552,-12.9773 65.9238,38.9309 -11.9384,59.1752 0,0 0.51861,-0.51903 1.03805,-1.55729 z m -95.5117,82.0153 c 56.0613,3.63381 141.71,-2.07631 143.786,-28.5494 0,0 -4.15242,10.3818 -46.1981,18.1676 -47.7558,8.8247 -106.931,7.78643 -141.71,2.07631 0,0 7.26699,6.22915 44.122,8.30546 z"
             id="path4800"
             style="fill:#565656;stroke-width:3.98552895;fill-opacity:1" />
          <path
             sodipodi:nodetypes="cccccccccccc"
             inkscape:connector-curvature="0"
             d="m 154.26,2.98539 c 0,0 32.1832,32.7022 -30.6261,82.0153 -50.3512,39.9692 -11.4198,62.8088 0,88.7629 -29.5878,-26.4728 -50.8702,-49.8319 -36.336,-71.6335 21.2828,-32.1832 79.939,-47.7554 66.9621,-99.1446 z m -16.6105,148.977 c 15.053,17.1299 -4.15283,32.7026 -4.15283,32.7026 0,0 38.4121,-19.7253 20.7633,-44.1224 -16.0919,-23.3585 -28.5498,-34.7783 38.9311,-73.7098 0,0 -106.412,26.4735 -55.5416,85.1297 z"
             id="path4802"
             style="fill:#565656;stroke-width:3.98552895;fill-opacity:1" />
        </g>
      </g>
    </g>
  </g>
</svg>
